<svg width="15" height="15" viewBox="0 0 15 15" fill="none" xmlns="http://www.w3.org/2000/svg">
<circle cx="7.5" cy="7.5" r="7.5" fill="#FF6969"/>
<path d="M7.44541 4C6.91451 4 6.4917 4.43263 6.4917 4.95371C6.4917 5.4846 6.92433 5.90741 7.44541 5.90741C7.9763 5.90741 8.39911 5.47479 8.39911 4.95371C8.39911 4.43261 7.96649 4 7.44541 4Z" fill="#FFE8E8"/>
<path d="M8.9103 9.62395H8.49735C8.43837 9.62395 8.399 9.57477 8.399 9.5256L8.39907 6.61532C8.39907 6.55633 8.3499 6.51697 8.30072 6.51697H6.09835C6.03937 6.51697 6 6.56614 6 6.61532V7.34285C6 7.39203 6.0393 7.4412 6.09835 7.4412L6.54077 7.45101C6.58995 7.45101 6.63912 7.50018 6.63912 7.54936V9.51576C6.63912 9.57474 6.58995 9.61411 6.54077 9.61411H6.12783C6.06885 9.61411 6.02948 9.66329 6.02948 9.71246V10.7841C6.02948 10.843 6.07865 10.8824 6.12783 10.8824H8.90046C8.95944 10.8824 8.99881 10.8332 8.99881 10.7841L8.99874 9.72226C9.00855 9.66321 8.95937 9.62391 8.9102 9.62391L8.9103 9.62395Z" fill="#FFE8E8"/>
</svg>
